<svg xmlns="http://www.w3.org/2000/svg" xmlns:xlink="http://www.w3.org/1999/xlink" xmlns:fi="http://pattern.flaticon.com/" x="0" y="0" width="2160" height="1080" viewBox="0 0 2160 1080"><rect x="0px" y="0px" width="100%" height="100%" opacity="1" fill="#828199"/><defs><g transform="matrix(0.11726775138220959 -0.027061788169512886 0.027061788169512886 0.11726775138220959 312.20143559727535 324.72441433179307)" id="L1_44"><path d="m174.828125 272.648438v56.71875l37.464844 58.796874 37.460937-58.796874v-56.71875zm0 0" fill="#ffcdbe"/><path d="m249.753906 305.347656v-21.25h-74.925781v21.101563c11.515625 3.898437 23.804687 6.058593 36.566406 6.152343 0 0 .898438.003907.902344.003907 12.925781 0 25.535156-2.054688 37.457031-6.007813zm0 0" fill="#fcb19f"/><path d="m325.722656 208.128906h-25.910156v-56.195312h25.910156c11.496094 0 20.8125 9.320312 20.8125 20.8125v14.570312c0 11.496094-9.316406 20.8125-20.8125 20.8125zm0 0" fill="#fcb19f"/><path d="m98.863281 208.128906h25.910157v-56.195312h-25.910157c-11.496093 0-20.816406 9.320312-20.816406 20.8125v14.570312c0 11.496094 9.320313 20.8125 20.816406 20.8125zm0 0" fill="#ffcdbe"/><path d="m156.097656 117.59375c0-64.945312 25.625-117.59375 57.234375-117.59375 31.613281 0 57.238281 52.648438 57.238281 117.59375zm0 0" fill="#f2bb88"/><path d="m114.472656 151.933594v39.558594c0 53.9375 43.140625 98.648437 97.078125 99.046874 54.363281.402344 98.5625-43.546874 98.5625-97.816406v-40.789062zm0 0" fill="#ffcdbe"/><path d="m114.472656 151.933594v17.492187h158.179688c4.597656 0 8.324218 3.726563 8.324218 8.324219v14.972656c0 49.050782-36.109374 89.667969-83.195312 96.726563 4.496094.679687 9.089844 1.054687 13.769531 1.089843 54.363281.402344 98.5625-43.546874 98.5625-97.816406v-40.785156h-195.640625zm0 0" fill="#fcb19f"/><path d="m360.617188 378.136719-77.585938-18.476563-17.878906 61.332032c-2.21875 7.613281-11.84375 9.972656-17.328125 4.246093l-35.53125-37.074219-35.53125 37.074219c-5.484375 5.726563-15.109375 3.367188-17.328125-4.242187l-17.878906-61.332032-77.585938 18.472657c-37.5 8.929687-63.96875 42.4375-63.96875 80.988281v42.574219c0 5.691406 4.613281 10.300781 10.300781 10.300781h403.984375c5.6875 0 10.300782-4.609375 10.300782-10.300781v-42.574219c0-38.550781-26.46875-72.0625-63.96875-80.988281zm0 0" fill="#d6995c"/><path d="m283.027344 359.660156 70.792968 16.855469v135.484375h-87.414062l15.609375-42.515625c.667969-1.820313 1.011719-3.746094 1.011719-5.683594zm0 0" fill="#f2d1a5"/><path d="m141.554688 359.660156-70.789063 16.855469v135.484375h87.414063l-15.613282-42.515625c-.667968-1.820313-1.007812-3.746094-1.007812-5.683594v-104.140625zm0 0" fill="#f2d1a5"/><path d="m377.171875 383.976562c12.144531 14.574219 19.316406 33.246094 19.316406 53.292969v74.730469h17.796875c5.6875 0 10.300782-4.613281 10.300782-10.300781v-42.578125c0-32.582032-18.914063-61.5625-47.414063-75.144532zm0 0" fill="#c48958"/><path d="m95.738281 117.59375h60.359375c0-64.945312 25.625-117.59375 57.234375-117.59375-64.945312 0-117.59375 52.648438-117.59375 117.59375zm0 0" fill="#f2d1a5"/><path d="m213.332031 0c31.613281 0 57.238281 52.648438 57.238281 117.59375h60.355469c0-64.945312-52.648437-117.59375-117.59375-117.59375zm0 0" fill="#e3a76f"/><path d="m330.925781 117.59375 24.972657 19.621094c6.152343 4.835937 2.734374 14.71875-5.09375 14.71875h-276.128907c-7.921875 0-11.28125-10.082032-4.945312-14.832032l26.007812-19.507812zm0 0" fill="#f2bb88"/><path d="m330.925781 117.59375h-27.054687l45.789062 34.339844h1.144532c7.828124 0 11.246093-9.886719 5.09375-14.722656zm0 0" fill="#e3a76f"/><path d="m223.738281 455.804688c0 6.324218-5.125 11.449218-11.445312 11.449218-6.324219 0-11.449219-5.125-11.449219-11.449218 0-6.320313 5.125-11.445313 11.449219-11.445313 6.320312 0 11.445312 5.125 11.445312 11.445313zm0 0" fill="#f2d1a5"/><path d="m223.738281 500.554688c0 6.320312-5.125 11.445312-11.445312 11.445312-6.324219 0-11.449219-5.125-11.449219-11.445312 0-6.324219 5.125-11.449219 11.449219-11.449219 6.320312 0 11.445312 5.125 11.445312 11.449219zm0 0" fill="#f2d1a5"/><path d="m330.925781 494.75h-31.21875c-4.265625 0-7.726562-3.460938-7.726562-7.726562 0-4.265626 3.460937-7.726563 7.726562-7.726563h31.21875c4.269531 0 7.726563 3.460937 7.726563 7.726563 0 4.265624-3.457032 7.726562-7.726563 7.726562zm0 0" fill="#f2bb88"/><path d="m124.878906 494.75h-31.21875c-4.269531 0-7.726562-3.460938-7.726562-7.726562 0-4.265626 3.457031-7.726563 7.726562-7.726563h31.21875c4.265625 0 7.726563 3.460937 7.726563 7.726563 0 4.265624-3.460938 7.726562-7.726563 7.726562zm0 0" fill="#f2bb88"/><path d="m212.292969 434.394531c-4.265625 0-7.726563-3.460937-7.726563-7.726562v-50.632813l7.726563 12.128906 7.726562-12.128906v50.632813c0 4.265625-3.460937 7.726562-7.726562 7.726562zm0 0" fill="#f2d1a5"/><g fill="#f2bb88"><path d="m174.828125 329.367188 37.464844 58.796874-35.53125 37.074219c-5.484375 5.726563-15.109375 3.367188-17.328125-4.242187l-17.878906-61.332032zm0 0"/><path d="m249.753906 329.367188-37.460937 58.796874 35.53125 37.074219c5.484375 5.726563 15.109375 3.367188 17.328125-4.242187l17.875-61.332032zm0 0"/></g></g><g transform="matrix(0.09765630215406418 0 0 0.09765630215406418 62.5 150)" id="L1_45"><path d="m22.011719 417.050781c-12.136719 0-22.00781275-9.875-22.00781275-22.007812v-49.308594c-.03515625-3.019531.05468755-30.675781 13.96484375-44.742187 5.226562-5.289063 11.914062-8.082032 19.339844-8.082032 3.457031 0 6.375 2.296875 7.3125 5.449219 1.453125-2.011719 2.566406-3.097656 2.945312-3.445313l10.304688 11.242188.132812-.121094c-.101562.101563-9.984375 10.429688-9.984375 40.726563v48.277343c0 12.136719-9.875 22.011719-22.007812 22.011719zm13.386719-109.175781c-.664063.1875-1.363282.289062-2.085938.289062-3.394531 0-6.089844 1.125-8.484375 3.539063-8.027344 8.101563-9.632813 27.257813-9.574219 33.953125v49.386719c0 3.722656 3.03125 6.753906 6.757813 6.753906 3.722656 0 6.753906-3.03125 6.753906-6.753906v-48.28125c0-18.25 3.195313-30.738281 6.632813-38.886719zm0 0" fill="#5a5a5a"/><path d="m331.207031 280.144531h149.976563v30.816407h-149.976563zm0 0" fill="#ffe046"/><path d="m469.882812 280.144531v13.351563c0 3.40625-2.757812 6.164062-6.164062 6.164062h-132.511719v11.300782h149.976563v-30.816407zm0 0" fill="#ffd508"/><path d="m270.691406 96.484375 23.242188-23.246094c4.011718-4.011719 4.011718-10.515625 0-14.527343l-3.738282-3.738282c-4.917968-4.914062-7.011718-11.988281-5.570312-18.789062l1.613281-7.609375c.722657-3.402344-.324219-6.9375-2.785156-9.394531l-5.1875-5.191407c-2.460937-2.460937-5.996094-3.507812-9.398437-2.785156l-7.609376 1.613281c-6.800781 1.445313-13.871093-.652344-18.789062-5.570312l-3.738281-3.738282c-4.011719-4.011718-10.515625-4.011718-14.527344 0l-23.242187 23.246094zm0 0" fill="#ffe046"/><path d="m294.226562 179.917969v-31.9375c0-79.621094-64.117187-145.152344-143.738281-145.191407-79.460937-.039062-143.886719 64.363282-143.886719 143.8125v123.269532c0 22.691406 18.394532 41.085937 41.089844 41.085937h283.515625v-60.019531c0-10.898438-4.328125-21.351562-12.035156-29.054688l-12.910156-12.914062c-7.707031-7.703125-12.035157-18.152344-12.035157-29.050781zm0 0" fill="#828282"/><path d="m231.265625 147.328125c0 44.820313-36.335937 81.152344-81.152344 81.152344-44.820312 0-81.152343-36.332031-81.152343-81.152344 0-44.816406 36.332031-81.148437 81.152343-81.148437 44.816407 0 81.152344 36.332031 81.152344 81.148437zm0 0" fill="#ffd508"/><path d="m218.636719 147.328125c0 37.84375-30.679688 68.523437-68.523438 68.523437s-68.523437-30.679687-68.523437-68.523437 30.679687-68.523437 68.523437-68.523437 68.523438 30.679687 68.523438 68.523437zm0 0" fill="#ffe046"/><path d="m191.203125 147.328125c0 22.695313-18.398437 41.089844-41.089844 41.089844-22.695312 0-41.089843-18.394531-41.089843-41.089844 0-22.691406 18.394531-41.089844 41.089843-41.089844 22.691407 0 41.089844 18.398438 41.089844 41.089844zm0 0" fill="#fa9084"/><path d="m172.523438 112.894531c4.203124 6.445313 6.652343 14.140625 6.652343 22.410157 0 22.691406-18.394531 41.085937-41.089843 41.085937-8.265626 0-15.960938-2.449219-22.40625-6.652344 7.332031 11.242188 20.011718 18.679688 34.433593 18.679688 22.695313 0 41.089844-18.394531 41.089844-41.089844 0-14.421875-7.4375-27.101563-18.679687-34.433594zm0 0" fill="#f76c57"/><path d="m319.171875 221.882812-12.910156-12.910156c-7.707031-7.707031-12.035157-18.160156-12.035157-29.058594v-31.9375c0-79.621093-64.117187-145.148437-143.738281-145.1875-3.835937-.003906-7.636719.148438-11.394531.441407 74.347656 5.839843 132.53125 68.898437 132.53125 144.746093v42.796876c0 10.898437 4.332031 21.347656 12.035156 29.054687l12.914063 12.910156c7.703125 7.707031 12.035156 18.15625 12.035156 29.054688v49.167969h22.597656v-60.023438c0-10.898438-4.328125-21.351562-12.035156-29.054688zm0 0" fill="#5a5a5a"/><path d="m259.300781 239.054688c0 11.34375-9.199219 20.542968-20.546875 20.542968-11.34375 0-20.542968-9.199218-20.542968-20.542968 0-11.347657 9.199218-20.546876 20.542968-20.546876 11.347656 0 20.546875 9.199219 20.546875 20.546876zm0 0" fill="#fa9084"/><path d="m247.890625 220.671875c1.375 2.753906 2.164063 5.851563 2.164063 9.136719 0 11.34375-9.199219 20.542968-20.546876 20.542968-3.285156 0-6.378906-.789062-9.132812-2.160156 3.363281 6.753906 10.320312 11.40625 18.378906 11.40625 11.347656 0 20.546875-9.199218 20.546875-20.542968 0-8.0625-4.652343-15.019532-11.410156-18.382813zm0 0" fill="#f76c57"/><path d="m506 310.960938h-24.816406v-55.636719c0-3.3125 2.683594-6 6-6h18.816406c3.3125 0 6 2.6875 6 6v49.636719c0 3.3125-2.6875 6-6 6zm0 0" fill="#cdcdcd"/><path d="m499.671875 249.324219v61.636719h6.328125c3.3125 0 6-2.6875 6-6v-49.636719c0-3.3125-2.6875-6-6-6zm0 0" fill="#bebebe"/></g><g transform="matrix(0.09765616059303284 0 0 0.09765616059303284 150 325)" id="L1_46"><path d="m311.28125 178.632812 22.082031 22.082032-206.167969 206.171875-22.082031-22.082031zm0 0" fill="#f2bb88"/><path d="m311.28125 178.636719-8.832031 8.832031 8.832031 8.832031c2.441406 2.441407 2.441406 6.394531 0 8.832031l-192.921875 192.921876 8.832031 8.835937 206.171875-206.171875zm0 0" fill="#e3a76f"/><path d="m134.554688 414.25-37.542969-37.539062c-16.257813-16.261719-42.625-16.261719-58.882813 0l-33.859375 33.859374c-5.691406 5.691407-5.691406 14.917969 0 20.609376l75.8125 75.816406c5.691407 5.6875 14.921875 5.6875 20.609375 0l33.859375-33.859375c16.261719-16.261719 16.261719-42.625.003907-58.886719zm-48.535157 54.515625-43.519531-43.519531c-2.414062-2.414063-2.414062-6.328125 0-8.742188l17.710938-17.710937c4.0625-4.066407 10.65625-4.066407 14.71875 0l37.539062 37.539062c4.066406 4.066407 4.066406 10.65625 0 14.722657l-17.710938 17.710937c-2.414062 2.414063-6.324218 2.414063-8.738281 0zm0 0" fill="#828282"/><path d="m134.554688 414.25-11.042969-11.039062c16.261719 16.257812 16.261719 42.625 0 58.882812l-25.027344 25.027344c-4.878906 4.878906-12.785156 4.878906-17.664063 0l-76.550781-76.550782c-5.691406 5.691407-5.691406 14.917969 0 20.609376l75.8125 75.816406c5.691407 5.6875 14.921875 5.6875 20.609375 0l33.859375-33.859375c16.261719-16.261719 16.261719-42.625.003907-58.886719zm0 0" fill="#5a5a5a"/><path d="m344.40625 167.59375-55.265625-55.265625c-3.21875-3.21875-3.21875-8.4375 0-11.65625l70.179687-70.179687c25.351563-25.351563 61.964844-35.871094 96.90625-27.851563l36.917969 8.480469c3.847657.882812 6.851563 3.886718 7.734375 7.734375l8.476563 36.917969c8.027343 34.941406-2.496094 71.554687-27.847657 96.90625l-70.179687 70.179687c-3.21875 3.21875-8.4375 3.21875-11.65625 0zm0 0" fill="#cdcdcd"/><path d="m481.507812 152.679688c25.351563-25.351563 35.875-61.964844 27.851563-96.90625l-8.480469-36.917969c-.34375-1.496094-1.011718-2.855469-1.921875-4.023438-2.3125 23.671875-12.667969 46.210938-29.960937 63.503907l-106.925782 106.921874 37.601563 37.601563c3.21875 3.21875 8.4375 3.21875 11.65625 0zm0 0" fill="#bebebe"/><path d="m334.160156 201.515625-23.675781-23.675781c-3.21875-3.21875-3.21875-8.4375 0-11.65625l33.921875-33.921875c6.503906-6.503907 17.050781-6.503907 23.554688 0l11.773437 11.777343c6.507813 6.503907 6.507813 17.050782 0 23.554688l-33.917969 33.921875c-3.21875 3.21875-8.4375 3.21875-11.65625 0zm0 0" fill="#828282"/><path d="m379.738281 144.039062-11.777343-11.777343c6.503906 6.503906 6.503906 17.050781 0 23.554687l-39.75 39.746094 5.953124 5.953125c3.214844 3.21875 8.433594 3.21875 11.652344 0l33.921875-33.921875c6.503907-6.503906 6.503907-17.050781 0-23.554688zm0 0" fill="#5a5a5a"/></g><g transform="matrix(0.05338605966673847 -0.08123965609561 0.08123965609561 0.05338605966673847 227.58087569361157 181.29570189878638)" id="L1_47"><path d="m262.246094 447.480469v-154.015625h-250.796875v154.015625c0 62.089843 29.136719 64.519531 29.136719 64.519531h38.179687c2.679687 0 5.058594-1.714844 5.90625-4.253906l4.164063-12.496094c1.59375-4.777344 7.90625-5.78125 10.902343-1.734375l11.828125 15.964844c1.171875 1.585937 3.027344 2.519531 5 2.519531h58.417969c2.441406 0 4.65625-1.425781 5.667969-3.648438l4.9375-10.867187c1.824218-4.007813 7.125-4.90625 10.164062-1.71875l12.457032 13.046875c1.941406 2.035156 4.636718 3.1875 7.449218 3.1875h55.351563c5.195312 0 8.144531-6.019531 4.886719-10.066406-6.96875-8.65625-13.652344-24.707032-13.652344-54.453125zm0 0" fill="#ffe046"/><path d="m262.246094 465.171875c0 22.589844 3.855468 37.277344 8.761718 46.828125h.003907c5.195312 0 8.144531-6.019531 4.886719-10.066406-6.964844-8.65625-13.652344-24.707032-13.652344-54.453125zm0 0" fill="#ffd508"/><path d="m262.246094 447.480469v-154.015625h-250.796875v17.6875h222.699219c5.746093 0 10.40625 4.660156 10.40625 10.40625v125.921875c0 57.105469 22.894531 64.519531 22.894531 64.519531h3.5625c5.195312 0 8.144531-6.019531 4.886719-10.066406-6.96875-8.65625-13.652344-24.707032-13.652344-54.453125zm0 0" fill="#ffd508"/><path d="m178.992188 256v-213.550781c0-23.34375-19.101563-42.886719-42.4375-42.4414065-22.613282.4335935-40.8125 18.8984375-40.8125 41.6171875v214.375h-85.441407c-5.6875 0-10.300781 4.613281-10.300781 10.300781v16.859375c0 5.691406 4.613281 10.304688 10.300781 10.304688h254.128907c5.691406 0 10.304687-4.613282 10.304687-10.304688v-16.859375c0-5.6875-4.613281-10.300781-10.304687-10.300781zm0 0" fill="#f2bb88"/><path d="m163.382812 41.625v203.96875c0 5.746094 4.660157 10.40625 10.40625 10.40625h5.203126v-214.375c0-22.988281-18.636719-41.625-41.625-41.625-2.667969 0-5.277344.261719-7.804688.742188 19.257812 3.652343 33.820312 20.5625 33.820312 40.882812zm0 0" fill="#e3a76f"/><path d="m259.121094 256v37.464844h5.308594c5.691406 0 10.304687-4.613282 10.304687-10.304688v-16.859375c0-5.691406-4.613281-10.300781-10.304687-10.300781zm0 0" fill="#e3a76f"/><path d="m447.480469 452.234375c0-18.679687-15.140625-33.824219-33.820313-33.824219-8.207031 0-15.734375 2.929688-21.589844 7.789063-2.292968-.882813-4.773437-1.390625-7.375-1.390625-11.316406 0-20.484374 9.171875-20.484374 20.488281 0 1.171875.121093 2.3125.308593 3.429687-7.242187 4.292969-12.105469 12.183594-12.105469 21.214844 0 3.933594.925782 7.648438 2.566407 10.949219-4.632813 3.019531-7.699219 8.238281-7.699219 14.179687 0 9.351563 7.578125 16.929688 16.929688 16.929688 4.824218 0 9.167968-2.03125 12.253906-5.269531 3.046875 2.960937 7.199218 4.789062 11.785156 4.789062 7.242188 0 13.40625-4.558593 15.824219-10.957031 2.996093 1.074219 6.222656 1.660156 9.585937 1.660156 15.71875 0 28.460938-12.742187 28.460938-28.460937 0-1.023438-.054688-2.027344-.160156-3.019531 3.484374-5.320313 5.519531-11.675782 5.519531-18.507813zm0 0" fill="#cdcdcd"/><path d="m309.890625 396.085938c-8.988281 4.277343-13.585937 14.027343-11.75 23.367187-3.941406 3.992187-5.1875 10.167969-2.636719 15.527344 3.253906 6.84375 11.441406 9.753906 18.285156 6.496093 2.335938-1.109374 4.199219-2.800781 5.527344-4.8125 2.992188-.035156 6.023438-.679687 8.898438-2.046874 10.640625-5.0625 15.164062-17.789063 10.105468-28.429688-5.0625-10.640625-17.789062-15.164062-28.429687-10.101562zm0 0" fill="#cdcdcd"/><path d="m328.578125 396.28125c.097656.191406.214844.371094.304687.566406 5.0625 10.640625.539063 23.367188-10.101562 28.425782-2.878906 1.371093-5.90625 2.015624-8.898438 2.050781-1.332031 2.011719-3.195312 3.703125-5.53125 4.8125-3.128906 1.488281-6.535156 1.675781-9.628906.796875.203125.691406.460938 1.375.78125 2.046875 3.253906 6.84375 11.441406 9.75 18.285156 6.496093 2.335938-1.109374 4.199219-2.800781 5.527344-4.8125 2.992188-.035156 6.023438-.679687 8.898438-2.050781 10.640625-5.058593 15.164062-17.785156 10.105468-28.425781-2.128906-4.476562-5.625-7.851562-9.742187-9.90625zm0 0" fill="#bebebe"/><g fill="#ffd508"><path d="m57.675781 293.46875v34.335938c0 4.265624-3.460937 7.726562-7.726562 7.726562s-7.726563-3.460938-7.726563-7.726562v-34.335938zm0 0"/><path d="m145.097656 293.46875v34.335938c0 4.265624-3.460937 7.726562-7.726562 7.726562-4.277344 0-7.726563-3.460938-7.726563-7.726562v-34.335938zm0 0"/><path d="m232.507812 293.46875v34.335938c0 4.265624-3.460937 7.726562-7.726562 7.726562s-7.726562-3.460938-7.726562-7.726562v-34.335938zm0 0"/><path d="m190.878906 293.46875v22.890625c0 4.265625-3.453125 7.726563-7.726562 7.726563-4.265625 0-7.726563-3.464844-7.726563-7.726563v-22.890625zm0 0"/><path d="m99.304688 293.46875v22.890625c0 4.265625-3.460938 7.726563-7.726563 7.726563s-7.726563-3.464844-7.726563-7.726563v-22.890625zm0 0"/></g><path d="m407.546875 418.964844c-5.8125 1.0625-11.109375 3.609375-15.476563 7.234375 4.195313 2.089843 7.09375 6.417969 7.09375 11.417969 0 4.265624 3.460938 7.726562 7.726563 7.726562 4.269531 0 7.726563-3.460938 7.726563-7.726562 0-7.144532-2.675782-13.675782-7.070313-18.652344zm0 0" fill="#bebebe"/><path d="m442.011719 470.65625c3.453125-5.300781 5.46875-11.625 5.46875-18.421875 0-7.582031-2.492188-14.578125-6.707031-20.21875.238281 5.453125-.011719 11.109375-1.007813 16.6875-.695313-.722656-1.417969-1.421875-2.171875-2.089844-3.019531-2.667969-7.660156-2.789062-10.59375-.027343-3.386719 3.191406-3.207031 8.519531.222656 11.484374.027344.027344.054688.046876.082032.074219 4.484374 3.921875 4.875 10.878907.929687 15.347657-4.246094 4.8125-9.78125 9.054687-16.914063 12.410156-3.476562-9.199219-12.300781-15.796875-22.664062-15.964844-4.070312-.066406-7.707031 2.90625-8.097656 6.957031-.441406 4.613281 3.167968 8.492188 7.691406 8.492188 1.699219 0 3.292969.464843 4.660156 1.273437 2.257813 1.332032 1.625 4.800782-.949218 5.277344-.015626.003906-.035157.007812-.050782.011719-17.9375 3.328125-30.933594-.429688-40.324218-8.136719-3.203126 3.585938-4.914063 8.53125-4.109376 13.875 1.097657 7.277344 6.964844 13.09375 14.246094 14.132812 5.808594.832032 11.136719-1.300781 14.742188-5.089843 3.046875 2.960937 7.199218 4.789062 11.785156 4.789062 7.246094 0 13.410156-4.558593 15.824219-10.957031 2.996093 1.070312 6.222656 1.660156 9.585937 1.660156 15.039063 0 27.34375-11.667968 28.382813-26.441406.511719-1.179688.296875-3.097656-.03125-5.125zm0 0" fill="#bebebe"/><path d="m137.367188 263.726562c-4.269532 0-7.726563-3.460937-7.726563-7.726562v-171.707031c0-4.265625 3.457031-7.726563 7.726563-7.726563 4.265624 0 7.726562 3.460938 7.726562 7.726563v171.707031c0 4.265625-3.460938 7.726562-7.726562 7.726562zm0 0" fill="#e3a76f"/><path d="m150.757812 46.871094c0 7.398437-5.996093 13.394531-13.390624 13.394531-7.398438 0-13.394532-5.996094-13.394532-13.394531 0-7.394532 5.996094-13.390625 13.394532-13.390625 7.394531 0 13.390624 5.996093 13.390624 13.390625zm0 0" fill="#e3a76f"/></g><g transform="matrix(0.0679346085065271 -0.0679346085065271 0.0679346085065271 0.0679346085065271 114.41037615216865 244.99996458802974)" id="L1_48"><path d="M307.531,159.266c0,4.142-3.357,7.5-7.5,7.5s-7.5-3.358-7.5-7.5c0-7.795,2.699-14.968,7.201-20.65   c-2.384-29.756-19.899-55.23-44.869-68.722c-10.03-1.84-20.319-2.809-30.775-2.815c-43.275,0.01-78.479,35.219-78.479,78.496   c0,43.283,35.213,78.496,78.496,78.496h35.925c4.143,0,7.5,3.358,7.5,7.5s-3.357,7.5-7.5,7.5h-28.543v74.615h52.464   c22.827-32.708,38.579-90.38,38.579-142.115c0-4.142,3.357-7.5,7.5-7.5c14.296,0,26.332-9.85,29.686-23.119h-33.873   C315.745,140.952,307.531,149.167,307.531,159.266z M273.413,132.992c-7.444,14.916-27.942,30.344-49.36,30.344   c-21.645,0-39.255-15.115-39.255-33.693s17.61-33.693,39.255-33.693c21.418,0,41.916,15.428,49.36,30.344   C274.465,128.402,274.465,130.883,273.413,132.992z" fill="#ffffff"/><path d="M299.731,138.616c6.107-7.706,15.538-12.664,26.112-12.664h26.935   c-25.147-29.142-59.622-49.035-97.915-56.058C279.832,83.386,297.348,108.86,299.731,138.616z" fill="#00e4c5"/><rect x="295px" y="405px" width="34px" height="15px" fill="#ff9926"/><path d="M53.875,420h22.5c4.142,0,7.5,3.358,7.5,7.5h15c0-4.142,3.358-7.5,7.5-7.5h110.113v-15H53.875V420z" fill="#ff9926"/><rect x="295px" y="435px" width="34px" height="15px" fill="#fecc33"/><path d="M76.375,435h-22.5v15h162.613v-15H106.375c-4.142,0-7.5-3.358-7.5-7.5h-15   C83.875,431.642,80.517,435,76.375,435z" fill="#fecc33"/><path d="M295.288,390h34.788v-95.491c0-4.142,3.357-7.5,7.5-7.5c0.002,0,0.005,0,0.007,0v-49.82   c0-9.93-0.823-19.668-2.391-29.156c-5.513,44.312-20.356,88.289-39.904,115.602L295.288,390z" fill="#0c80e4"/><path d="M130.61,145.575c0-24.996,9.861-47.732,25.895-64.524c-60.324,26.172-102.63,86.305-102.63,156.14   V390h162.613V238.759C168.484,234.869,130.61,194.563,130.61,145.575z" fill="#0c80e4"/><path d="M224.053,110.949c-13.374,0-24.255,8.386-24.255,18.693s10.881,18.693,24.255,18.693   c13.135,0,27.342-9.278,33.927-18.693C251.395,120.228,237.188,110.949,224.053,110.949z" fill="#fecc33"/><path d="M390.782,301.798c-3.364-2.412-8.053-1.642-10.465,1.725c-2.414,3.366-1.642,8.052,1.725,10.465   c7.42,5.32,13.621,11.982,18.365,19.521c-14.329,4.715-24.707,18.217-24.707,34.104V457.5c0,4.142,3.357,7.5,7.5,7.5   s7.5-3.358,7.5-7.5v-89.887c0-9.966,7.017-18.313,16.367-20.391c2.646,7.402,4.058,15.277,4.058,23.31c0,4.142,3.357,7.5,7.5,7.5   s7.5-3.358,7.5-7.5C426.125,343.361,412.913,317.666,390.782,301.798z"/><path d="M390.57,174.979c3.815-1.613,5.601-6.014,3.987-9.829C365.529,96.503,298.639,52.132,224.12,52.079   c-0.005,0-0.01-0.001-0.015-0.001c-0.009,0-0.018,0-0.028,0c-0.03,0-0.06-0.001-0.09-0.001   c-102.071,0-185.113,83.042-185.113,185.113V457.5c0,4.142,3.358,7.5,7.5,7.5h177.613c4.142,0,7.5-3.358,7.5-7.5V328.686h48.8   l0.001,128.814c0,4.142,3.357,7.5,7.5,7.5h49.787c4.143,0,7.5-3.358,7.5-7.5V294.509c0-4.14-3.354-7.496-7.493-7.5   c-0.002,0-0.005,0-0.007,0c-4.143,0-7.5,3.358-7.5,7.5V390h-34.788l0-66.365c19.548-27.313,34.391-71.29,39.904-115.602   c1.231-9.899,2.002-19.814,2.25-29.564c15.178-2.49,27.85-12.503,34.071-26.066c3.417,5.953,6.506,12.153,9.228,18.589   C382.354,174.809,386.759,176.592,390.57,174.979z M330.075,450h-34.787l0-15h34.787V450z M330.075,405v15h-34.787l0-15H330.075z    M216.488,420H106.375c-4.142,0-7.5,3.358-7.5,7.5s3.358,7.5,7.5,7.5h110.113v15H53.875v-15h22.5c4.142,0,7.5-3.358,7.5-7.5   s-3.358-7.5-7.5-7.5h-22.5v-15h162.613V420z M216.488,390H53.875V237.191c0-69.836,42.306-129.968,102.63-156.14   c-16.035,16.792-25.895,39.528-25.895,64.524c0,48.989,37.874,89.294,85.878,93.184V390z M330.031,164.071   c-4.143,0-7.5,3.358-7.5,7.5c0,51.735-15.752,109.406-38.579,142.115h-52.464v-74.615h28.543c4.143,0,7.5-3.358,7.5-7.5   s-3.357-7.5-7.5-7.5h-35.925c-43.283,0-78.496-35.213-78.496-78.496c0-43.277,35.204-78.486,78.479-78.496   c10.456,0.006,20.744,0.976,30.775,2.815c38.294,7.023,72.768,26.916,97.915,56.058h-26.935c-10.573,0-20.005,4.958-26.112,12.664   c-4.502,5.681-7.201,12.854-7.201,20.65c0,4.142,3.357,7.5,7.5,7.5s7.5-3.358,7.5-7.5c0-10.098,8.215-18.313,18.313-18.313h33.873   C356.362,154.221,344.326,164.071,330.031,164.071z"/><path d="M223.988,37.078c4.142,0,7.5-3.358,7.5-7.5V7.5c0-4.142-3.358-7.5-7.5-7.5s-7.5,3.358-7.5,7.5v22.078   C216.488,33.72,219.845,37.078,223.988,37.078z"/><path d="M152.464,42.644c1.129,3.011,3.987,4.869,7.023,4.869c0.875,0,1.765-0.154,2.632-0.479c3.878-1.454,5.844-5.777,4.39-9.655   l-7.499-20c-1.454-3.879-5.779-5.844-9.655-4.39c-3.879,1.454-5.844,5.777-4.39,9.655L152.464,42.644z"/><path d="M285.856,47.033c0.867,0.325,1.757,0.479,2.632,0.479c3.036,0,5.895-1.858,7.023-4.869l7.499-20   c1.454-3.878-0.511-8.202-4.39-9.656c-3.877-1.454-8.201,0.511-9.655,4.389l-7.499,20   C280.012,41.256,281.977,45.579,285.856,47.033z"/><path d="M224.053,95.949c-21.645,0-39.255,15.115-39.255,33.693s17.61,33.693,39.255,33.693c21.418,0,41.916-15.428,49.36-30.344   c1.052-2.109,1.052-4.589,0-6.698C265.969,111.377,245.471,95.949,224.053,95.949z M224.053,148.336   c-13.374,0-24.255-8.386-24.255-18.693s10.881-18.693,24.255-18.693c13.135,0,27.342,9.278,33.927,18.693   C251.395,139.058,237.188,148.336,224.053,148.336z"/></g><g transform="matrix(0.10142790557758645 0.030052714159004183 -0.030052714159004183 0.10142790557758645 289.40525457155263 235.43077014991786)" id="L1_49"><path d="M258.655,217.232c-1.144-3.087-0.141-6.558,2.473-8.56c11.748-8.997,22.578-20.953,31.319-34.576   c13.575-21.153,21.052-44.866,21.052-66.769c0-23.681-7.794-46.171-21.945-63.328c-15.201-18.43-36.726-29-59.054-29   c-22.328,0-43.852,10.57-59.054,29C159.294,61.156,151.5,83.646,151.5,107.328c0,21.904,7.476,45.616,21.051,66.77   c8.742,13.623,19.572,25.579,31.319,34.576c2.613,2.001,3.616,5.472,2.473,8.559c-1.144,3.087-4.172,5.063-7.452,4.883   l-81.028-4.526v22.833l92.85-5.188c2.2-0.125,4.33,0.723,5.846,2.312s2.259,3.763,2.033,5.948l-20.73,200.359   c6.562,2.387,19.325,6.146,34.638,6.146c15.309,0,28.07-3.757,34.638-6.146l-20.73-200.358c-0.227-2.185,0.517-4.359,2.032-5.948   c1.517-1.59,3.657-2.436,5.846-2.312l92.851,5.188v-22.833l-81.029,4.526C262.823,222.303,259.798,220.318,258.655,217.232z    M235.85,211.843c-1.055,0.526-2.202,0.79-3.35,0.79s-2.295-0.263-3.349-0.79c-27.653-13.802-57.5-53.503-57.5-93.577   c0-39.799,27.297-72.178,60.85-72.178c28.468,0,52.839,22.919,59.268,55.735c0.796,4.065-1.854,8.006-5.919,8.802   c-0.126,0.025-0.251,0.036-0.376,0.054c0.24,2.49,0.377,5.018,0.377,7.586c0,1.998-0.096,4.004-0.258,6.011   c0.116,0.015,0.232,0.022,0.349,0.043c4.08,0.712,6.812,4.597,6.1,8.677C286.414,165.242,262.782,198.401,235.85,211.843z" fill="#ff9926"/><path d="M359.789,204.209c-1.498-1.417-3.512-2.158-5.571-2.039l-67.758,3.785c6.814-7.158,13.099-15.166,18.611-23.757   c15.107-23.541,23.428-50.13,23.428-74.871c0-27.155-9.011-53.035-25.373-72.873C285.064,12.559,259.322,0,232.5,0   c-26.822,0-52.564,12.558-70.625,34.455C145.512,54.292,136.5,80.172,136.5,107.328c0,24.741,8.32,51.33,23.427,74.871   c5.513,8.591,11.798,16.599,18.611,23.756l-67.756-3.785c-2.066-0.121-4.075,0.623-5.572,2.039   c-1.498,1.417-2.347,3.388-2.347,5.449v38.695c0,2.062,0.849,4.033,2.347,5.449c1.499,1.417,3.515,2.155,5.572,2.039l91.984-5.139   l-20.404,197.202c-0.325,3.136,1.347,6.141,4.183,7.519c0.805,0.391,20.017,9.577,45.954,9.577s45.148-9.187,45.953-9.577   c2.837-1.378,4.509-4.382,4.184-7.519l-20.404-197.202l91.985,5.139c2.061,0.114,4.073-0.623,5.571-2.039   c1.498-1.417,2.347-3.388,2.347-5.449v-38.695C362.136,207.597,361.287,205.625,359.789,204.209z M347.136,240.422l-92.851-5.188   c-2.188-0.124-4.329,0.722-5.846,2.312c-1.516,1.589-2.259,3.763-2.032,5.948l20.73,200.358C260.57,446.243,247.809,450,232.5,450   c-15.313,0-28.076-3.759-34.638-6.146l20.73-200.359c0.226-2.185-0.517-4.359-2.033-5.948s-3.646-2.437-5.846-2.312l-92.85,5.188   v-22.833l81.028,4.526c3.28,0.18,6.308-1.796,7.452-4.883c1.143-3.087,0.14-6.558-2.473-8.559   c-11.747-8.997-22.577-20.953-31.319-34.576c-13.575-21.153-21.051-44.866-21.051-66.77c0-23.681,7.793-46.171,21.945-63.328   c15.202-18.43,36.727-29,59.054-29c22.328,0,43.853,10.57,59.054,29c14.151,17.157,21.945,39.647,21.945,63.328   c0,21.903-7.477,45.616-21.052,66.769c-8.741,13.623-19.571,25.579-31.319,34.576c-2.613,2.001-3.616,5.473-2.473,8.56   c1.143,3.086,4.168,5.071,7.451,4.883l81.029-4.526V240.422z"/><path d="M292.04,132.998c0.712-4.081-2.02-7.965-6.1-8.677c-0.117-0.021-0.232-0.028-0.349-0.043   c-3.956-0.505-7.637,2.178-8.329,6.142c-4.555,26.106-23.462,53.806-44.755,66.189c-22.742-13.318-45.857-46.638-45.857-78.342   c0-31.528,20.568-57.178,45.85-57.178c21.198,0,39.517,17.937,44.547,43.619c0.772,3.939,4.497,6.54,8.425,5.973   c0.125-0.018,0.25-0.03,0.376-0.054c4.065-0.796,6.715-4.737,5.919-8.802c-6.429-32.816-30.8-55.735-59.268-55.735   c-33.553,0-60.85,32.379-60.85,72.178c0,40.074,29.847,79.775,57.5,93.577c1.054,0.526,2.202,0.79,3.349,0.79   s2.295-0.263,3.35-0.79C262.782,198.401,286.414,165.242,292.04,132.998z"/></g><g transform="matrix(0.09686504516294728 0.018627892603599858 -0.018627892603599858 0.09686504516294728 228.8098759318198 44.147881629374865)" id="L1_50"><path d="M267.533,15h-17.589c28.011,17.489,46.683,48.546,46.683,83.878v13c0,0.001,0,0.001,0,0.002h15   c0-0.001,0-0.001,0-0.002c0-4.143,3.357-7.5,7.5-7.5h32.5v-5.5C351.627,52.628,313.902,15,267.533,15z" fill="#0c80e4"/><path d="M272.211,396.788c2.798,1.308,5.227,3.273,7.095,5.692h17.34c0.001-4.142,3.358-7.499,7.5-7.499   h23.169c3.615-38.736,21.486-231.108,24.014-275.604h-32.202c-4.142,0-7.499-3.356-7.5-7.498h-15   C296.626,134.479,276.099,355.192,272.211,396.788z" fill="#ff9926"/><path d="M283.283,414.119v31.743c0,1.422-0.168,2.803-0.463,4.138h51.325c2.281,0,4.138-1.856,4.138-4.138   v-31.743c0-2.278-1.852-4.131-4.128-4.137c0,0,0,0-0.001,0c-0.007,0-0.014-0.001-0.02-0.001h-29.989c-4.143,0-7.5-3.357-7.5-7.5   v-0.001h-17.34C281.795,405.704,283.283,409.737,283.283,414.119z" fill="#e43017"/><path d="M222.165,139.646c4.142,0,7.5,3.357,7.5,7.5v34.838c11.161-3.253,19.34-13.577,19.34-25.774   c0-21.544,13.165-41.173,32.622-49.551v-7.78c0-26.824-12.704-50.729-32.41-66.093c-3.105,18.015-9.064,51.96-12.119,65.201   c-3.398,14.735-17.229,30.595-39.565,30.595s-36.167-15.859-39.565-30.595c-1.911-8.285-4.959-24.674-7.734-40.197   c-0.337-0.852-0.528-1.778-0.528-2.751c0-0.055,0.007-0.108,0.008-0.162c-1.464-8.234-2.825-16.057-3.865-22.092   c-19.706,15.365-32.411,39.27-32.411,66.095v7.78c19.458,8.377,32.623,28.007,32.623,49.551c0,12.197,8.179,22.521,19.34,25.774   v-34.838c0-4.143,3.358-7.5,7.5-7.5c3.877,0,7.066,2.941,7.458,6.714h34.345C215.099,142.587,218.288,139.646,222.165,139.646z" fill="#00e4c5"/><path d="M183.588,394.981h73.726c3.501-37.511,20.37-219.095,23.729-270.949   c-10.388,7.124-17.039,19.162-17.039,32.176c0,23.071-18.77,41.841-41.84,41.841c-4.142,0-7.5-3.357-7.5-7.5v-43.404   c0-0.265,0.015-0.527,0.042-0.786h-34.345c0.027,0.258,0.042,0.52,0.042,0.786v43.404c0,4.143-3.358,7.5-7.5,7.5   c-23.071,0-41.84-18.77-41.84-41.841c0-13.028-6.664-25.078-17.072-32.199c3.461,53.264,20.42,235.278,23.761,270.971h15.836   c4.142,0,7.499,3.357,7.5,7.499h15C176.089,398.338,179.446,394.981,183.588,394.981z M167.599,265.906l20.027-20.026   l-20.027-20.026c-2.929-2.93-2.929-7.678,0-10.607c2.929-2.928,7.678-2.928,10.606,0l20.027,20.027l20.027-20.027   c2.929-2.928,7.678-2.928,10.606,0c2.929,2.93,2.929,7.678,0,10.607L208.84,245.88l20.027,20.026c2.929,2.93,2.929,7.678,0,10.607   c-1.464,1.464-3.384,2.196-5.303,2.196s-3.839-0.732-5.303-2.196l-20.027-20.027l-20.027,20.027   c-1.464,1.464-3.384,2.196-5.303,2.196c-1.919,0-3.839-0.732-5.303-2.196C164.67,273.584,164.67,268.836,167.599,265.906z" fill="#fecc33"/><path d="M268.283,445.862v-31.743c0-2.278-1.852-4.131-4.128-4.137h-0.001c-0.007,0-0.014-0.001-0.02-0.001   h-80.546c-4.142,0-7.5-3.357-7.5-7.5l0-0.001h-15l0,0.001c0,4.143-3.358,7.5-7.5,7.5h-22.667c-2.282,0-4.138,1.856-4.138,4.138   v31.743c0,2.281,1.856,4.138,4.138,4.138h133.225C266.427,450,268.283,448.144,268.283,445.862z" fill="#ff9926"/><path d="M163.653,47.538h67.761c1.691-9.582,3.177-18.206,4.078-23.47C224.08,18.284,211.187,15,197.533,15   c-13.654,0-26.546,3.283-37.958,9.068C160.476,29.332,161.962,37.956,163.653,47.538z" fill="#fecc33"/><path d="M197.534,113.58c14.136,0,22.842-9.831,24.949-18.966c1.541-6.679,3.905-19.148,6.25-32.076h-62.397   c2.345,12.929,4.709,25.397,6.25,32.076C174.692,103.749,183.398,113.58,197.534,113.58z" fill="#ff9926"/><path d="M366.627,98.878C366.627,44.356,322.174,0,267.533,0h-70c-17.933,0-34.768,4.778-49.295,13.124   c-0.559,0.247-1.081,0.552-1.553,0.917C117.807,31.34,98.439,62.893,98.439,98.878v11.337c-0.039,0.311-0.066,0.626-0.066,0.948   c0,23.376,20.763,245.955,24.481,285.626c-6.527,3.051-11.071,9.662-11.071,17.33v31.743c0,10.553,8.585,19.138,19.138,19.138   h133.225h70c10.553,0,19.138-8.585,19.138-19.138v-31.743c0-7.669-4.544-14.28-11.072-17.331   c3.888-41.597,24.416-262.322,24.416-284.91V98.878z M351.627,104.378h-32.5c-4.143,0-7.5,3.357-7.5,7.5c0,0.001,0,0.001,0,0.002   c0.001,4.142,3.358,7.498,7.5,7.498h32.202c-2.528,44.495-20.399,236.867-24.014,275.604h-23.169c-4.142,0-7.499,3.357-7.5,7.499   v0.001c0,4.143,3.357,7.5,7.5,7.5h29.989c0.007,0,0.014,0.001,0.02,0.001c0,0,0,0,0,0c2.277,0.005,4.128,1.859,4.128,4.137v31.743   c0,2.281-1.856,4.138-4.138,4.138H282.82c0.296-1.334,0.463-2.716,0.463-4.138v-31.743c0-4.382-1.488-8.415-3.978-11.639   c-1.868-2.419-4.297-4.384-7.095-5.692c3.888-41.596,24.415-262.309,24.416-284.908c0-0.001,0-0.001,0-0.002v-13   c0-35.332-18.672-66.389-46.683-83.878h17.589c46.369,0,84.094,37.628,84.094,83.878V104.378z M130.921,450   c-2.282,0-4.138-1.856-4.138-4.138v-31.743c0-2.281,1.856-4.138,4.138-4.138h22.667c4.142,0,7.5-3.357,7.5-7.5l0-0.001   c-0.001-4.142-3.358-7.499-7.5-7.499h-15.836c-3.341-35.694-20.3-217.707-23.761-270.971c10.407,7.121,17.072,19.171,17.072,32.199   c0,23.071,18.77,41.841,41.84,41.841c4.142,0,7.5-3.357,7.5-7.5v-43.404c0-0.265-0.015-0.527-0.042-0.786   c-0.393-3.773-3.582-6.714-7.458-6.714c-4.142,0-7.5,3.357-7.5,7.5v34.838c-11.161-3.253-19.34-13.577-19.34-25.774   c0-21.544-13.165-41.174-32.623-49.551v-7.78c0-26.824,12.705-50.73,32.411-66.095c1.04,6.035,2.401,13.859,3.865,22.092   c-0.001,0.055-0.008,0.108-0.008,0.162c0,0.972,0.191,1.898,0.528,2.751c2.775,15.522,5.823,31.912,7.734,40.197   c3.398,14.735,17.229,30.595,39.565,30.595s36.167-15.859,39.565-30.595c3.055-13.241,9.013-47.186,12.119-65.201   c19.705,15.365,32.41,39.27,32.41,66.093v7.78c-19.457,8.378-32.622,28.007-32.622,49.551c0,12.197-8.18,22.521-19.34,25.774   v-34.838c0-4.143-3.358-7.5-7.5-7.5c-3.877,0-7.066,2.941-7.458,6.714c-0.027,0.258-0.042,0.52-0.042,0.786v43.404   c0,4.143,3.358,7.5,7.5,7.5c23.071,0,41.84-18.77,41.84-41.841c0-13.015,6.65-25.052,17.039-32.176   c-3.359,51.854-20.229,233.437-23.729,270.949h-73.726c-4.142,0-7.499,3.357-7.5,7.499l0,0.001c0,4.143,3.358,7.5,7.5,7.5h80.546   c0.007,0,0.014,0.001,0.02,0.001h0.001c2.277,0.005,4.128,1.859,4.128,4.137v31.743c0,2.281-1.856,4.138-4.138,4.138H130.921z    M228.733,62.538c-2.345,12.929-4.709,25.397-6.25,32.076c-2.107,9.135-10.813,18.966-24.949,18.966s-22.842-9.831-24.949-18.966   c-1.541-6.679-3.905-19.148-6.25-32.076H228.733z M235.492,24.069c-0.901,5.264-2.387,13.888-4.078,23.47h-67.761   c-1.692-9.582-3.177-18.206-4.078-23.47C170.987,18.283,183.879,15,197.533,15C211.187,15,224.08,18.284,235.492,24.069z"/><path d="M178.206,276.514l20.027-20.027l20.027,20.027c1.464,1.464,3.384,2.196,5.303,2.196s3.839-0.732,5.303-2.196   c2.929-2.93,2.929-7.678,0-10.607L208.84,245.88l20.027-20.026c2.929-2.93,2.929-7.678,0-10.607c-2.928-2.928-7.677-2.928-10.606,0   l-20.027,20.027l-20.027-20.027c-2.929-2.928-7.678-2.928-10.606,0c-2.929,2.93-2.929,7.678,0,10.607l20.027,20.026l-20.027,20.026   c-2.929,2.93-2.929,7.678,0,10.607c1.464,1.464,3.384,2.196,5.303,2.196C174.821,278.71,176.741,277.978,178.206,276.514z"/></g><g transform="matrix(0.12404565790927911 -0.037902840990793135 0.037902840990793135 0.12404565790927911 89.34747542561126 58.97729875675271)" id="L1_51"><path d="M278.578,226.336c4.654-6.502,11.561-10.803,19.45-12.11c0.268-0.045,0.536-0.073,0.801-0.088   c0.061-0.004,0.122,0,0.183-0.002c0.207-0.007,0.412-0.01,0.616,0c0.072,0.004,0.143,0.013,0.215,0.019   c0.192,0.015,0.382,0.034,0.571,0.063c0.08,0.013,0.158,0.03,0.238,0.045c0.176,0.034,0.351,0.071,0.523,0.117   c0.088,0.023,0.175,0.05,0.263,0.077c0.159,0.049,0.315,0.101,0.47,0.16c0.095,0.036,0.188,0.073,0.282,0.113   c0.142,0.061,0.282,0.127,0.42,0.196c0.097,0.049,0.194,0.097,0.289,0.15c0.133,0.074,0.261,0.155,0.39,0.237   c0.091,0.058,0.183,0.113,0.272,0.175c0.146,0.103,0.286,0.215,0.425,0.328c0.056,0.045,0.116,0.084,0.17,0.131   c0.007,0.006,0.012,0.012,0.019,0.018c0.192,0.167,0.376,0.345,0.551,0.531c0.016,0.017,0.03,0.035,0.045,0.053l14.6-9.232   c-0.001-0.001-0.002-0.002-0.002-0.003c-2.214-3.501-1.17-8.133,2.331-10.347l32.543-20.578l-22.571-49.977l-148.242,91.445   l40.88,40.693l21.94-13.874c3.501-2.214,8.134-1.17,10.347,2.331c0,0.001,0.001,0.001,0.001,0.002l17.404-11.005   C274.919,232.578,276.452,229.307,278.578,226.336z" fill="#0c80e4"/><path d="M284.442,108.546 296.781,130.308 325.443,112.627 315.068,89.654z" fill="#e43017"/><path d="M77.076,111.993l66.27,65.967l49.264-30.389c3.526-2.174,8.146-1.079,10.321,2.446c0,0,0,0,0,0.001   l12.767-7.875c0,0-0.001-0.001-0.001-0.001c-2.175-3.525-1.08-8.146,2.446-10.321l90.7-55.95l-27.428-60.732   c-37.919-1.349-77.343,7.235-114.319,24.931C130.715,57.48,99.719,82.267,77.076,111.993z" fill="#0c80e4"/><path d="M365.794,243.014c-1.462,2.06-3.774,3.158-6.122,3.158c-1.502,0-3.018-0.45-4.336-1.385   l-9.195-6.529c-2.662-1.89-3.795-5.284-2.803-8.394c0.992-3.11,3.881-5.221,7.146-5.221h25.548l-15.558-34.45l-30.76,19.451   c-1.244,0.787-2.631,1.162-4.001,1.162c-2.486,0-4.916-1.234-6.344-3.49l-14.6,9.232c0.038,0.044,0.076,0.089,0.115,0.134   c0.119,0.135,0.235,0.271,0.345,0.415c0.056,0.074,0.106,0.15,0.159,0.226c0.098,0.139,0.193,0.28,0.282,0.426   c0.049,0.081,0.094,0.164,0.14,0.247c0.08,0.145,0.157,0.292,0.228,0.443c0.043,0.091,0.083,0.182,0.122,0.275   c0.061,0.145,0.118,0.293,0.17,0.444c0.036,0.104,0.071,0.208,0.102,0.313c0.042,0.141,0.079,0.285,0.113,0.43   c0.028,0.117,0.055,0.234,0.077,0.353c0.009,0.049,0.024,0.096,0.032,0.146c0.016,0.097,0.021,0.192,0.033,0.289   c0.015,0.116,0.031,0.231,0.04,0.348c0.014,0.17,0.017,0.339,0.019,0.508c0.001,0.071,0.009,0.141,0.008,0.212l-0.183,10.518   c-0.062,3.539-2.551,6.424-5.872,7.172l4.254,19.096c0.137-0.019,0.275-0.025,0.412-0.048c4.081-0.678,7.948,2.086,8.625,6.173   c0.677,4.086-2.086,7.948-6.173,8.625c-1.655,0.274-3.313,0.41-4.958,0.41c-6.195,0-12.22-1.922-17.358-5.6   c-6.502-4.653-10.803-11.561-12.11-19.45c-0.71-4.284-0.484-8.576,0.61-12.648l-17.404,11.005   c2.212,3.501,1.169,8.132-2.332,10.345l-19.054,12.049l16.648,16.572c2.115,2.105,2.78,5.263,1.696,8.042l-32.452,83.153   c0.315-0.004,0.626-0.024,0.942-0.024c41.781,0,76.217,32.052,80.011,72.858h45.113c-2.824-24.811-19.514-45.808-43.087-54.115   l-0.28,0.717c-1.156,2.963-3.989,4.775-6.989,4.775c-0.907,0-1.829-0.166-2.725-0.515c-3.859-1.506-5.766-5.855-4.26-9.713   l27.292-69.931c1.124-2.879,3.898-4.773,6.987-4.773c0.009,0,0.018,0,0.026,0l38.097,0.135c9.27,0,16.832-7.563,16.832-16.858   v-5.951h-5.541c-4.142,0-7.5-3.358-7.5-7.5s3.358-7.5,7.5-7.5h5.541v-39.132h-11.944   C366.965,240.82,366.53,241.978,365.794,243.014z" fill="#ff9926"/><path d="M284.006,138.189 271.667,116.427 240.999,135.345 255.3,155.897z" fill="#fecc33"/><path d="M200.485,160.337l-2.876,1.774l16.263,19.341l28.642-17.668l-14.301-20.552l-2.195,1.354   c-1.227,0.757-2.587,1.118-3.93,1.118c-2.514,0-4.97-1.264-6.388-3.56l-12.768,7.874   C205.105,153.543,204.009,158.162,200.485,160.337z" fill="#e43017"/><path d="M200.968,189.412 184.705,170.071 154.277,188.841 172.496,206.976z" fill="#fecc33"/><path d="M222.043,392.146c-33.503,0-61.199,25.339-64.931,57.858h129.862   C283.242,417.485,255.546,392.146,222.043,392.146z" fill="#ff9926"/><path d="M291.763,233.834c-0.01,0.011-0.021,0.021-0.031,0.033c-0.336,0.381-0.656,0.78-0.956,1.199   c-2.322,3.244-3.241,7.198-2.589,11.134c0.652,3.936,2.798,7.382,6.042,9.704c3.13,2.24,6.923,3.159,10.722,2.637l-4.254-19.096   c-0.565,0.127-1.151,0.2-1.757,0.196C295.426,239.581,292.519,237.111,291.763,233.834z" fill="#ff9926"/><path d="M304.172,215.964c-0.007-0.006-0.012-0.012-0.019-0.018c-0.055-0.047-0.114-0.086-0.17-0.131   c-0.139-0.113-0.278-0.225-0.425-0.328c-0.089-0.062-0.181-0.117-0.272-0.175c-0.128-0.082-0.257-0.163-0.39-0.237   c-0.095-0.053-0.192-0.101-0.289-0.15c-0.138-0.069-0.278-0.135-0.42-0.196c-0.093-0.04-0.187-0.077-0.282-0.113   c-0.154-0.059-0.311-0.111-0.47-0.16c-0.087-0.027-0.174-0.053-0.263-0.077c-0.172-0.046-0.347-0.083-0.523-0.117   c-0.079-0.015-0.158-0.032-0.238-0.045c-0.188-0.029-0.379-0.048-0.571-0.063c-0.072-0.006-0.143-0.015-0.215-0.019   c-0.204-0.01-0.41-0.007-0.616,0c-0.061,0.002-0.122-0.001-0.183,0.002c-0.266,0.016-0.533,0.044-0.801,0.088   c-7.889,1.307-14.796,5.608-19.45,12.11c-2.126,2.971-3.659,6.242-4.579,9.668c-1.094,4.072-1.32,8.365-0.61,12.648   c1.307,7.889,5.608,14.796,12.11,19.45c5.138,3.677,11.164,5.6,17.358,5.6c1.645,0,3.303-0.136,4.958-0.41   c4.086-0.677,6.85-4.539,6.173-8.625c-0.677-4.087-4.544-6.851-8.625-6.173c-0.137,0.023-0.275,0.029-0.412,0.048   c-3.799,0.522-7.592-0.397-10.722-2.637c-3.244-2.322-5.39-5.768-6.042-9.704c-0.652-3.936,0.268-7.89,2.589-11.134   c0.3-0.419,0.62-0.818,0.956-1.199c0.01-0.011,0.021-0.021,0.031-0.033c0.756,3.277,3.663,5.746,7.178,5.807   c0.606,0.004,1.192-0.069,1.757-0.196c3.321-0.749,5.811-3.634,5.872-7.172l0.183-10.518c0.001-0.071-0.007-0.141-0.008-0.212   c-0.002-0.169-0.006-0.337-0.019-0.508c-0.009-0.117-0.025-0.232-0.04-0.348c-0.012-0.096-0.017-0.192-0.033-0.289   c-0.008-0.05-0.023-0.097-0.032-0.146c-0.022-0.119-0.049-0.236-0.077-0.353c-0.034-0.145-0.071-0.289-0.113-0.43   c-0.032-0.105-0.066-0.209-0.102-0.313c-0.052-0.15-0.109-0.298-0.17-0.444c-0.039-0.093-0.079-0.184-0.122-0.275   c-0.071-0.151-0.148-0.298-0.228-0.443c-0.046-0.083-0.091-0.166-0.14-0.247c-0.089-0.146-0.184-0.287-0.282-0.426   c-0.053-0.075-0.103-0.152-0.159-0.226c-0.109-0.144-0.226-0.28-0.345-0.415c-0.039-0.044-0.077-0.089-0.115-0.134   c-0.015-0.018-0.029-0.036-0.045-0.053C304.548,216.309,304.365,216.132,304.172,215.964z"/><path d="M404.639,251.54l-33.848-74.948c-0.101-0.268-0.223-0.532-0.358-0.792L293.192,4.771c-1.15-2.547-3.621-4.243-6.411-4.401   c-41.817-2.372-85.439,6.68-126.161,26.168c-40.722,19.489-75.135,47.788-99.519,81.837c-2.141,2.989-1.799,7.088,0.807,9.682   L237.793,293.14l-33.571,86.023c-35.758,8.132-62.537,40.158-62.537,78.342c0,4.142,3.358,7.5,7.5,7.5h205.908   c4.142,0,7.5-3.358,7.5-7.5c0-34.274-21.436-64.236-53.057-75.59l19.688-50.447l32.98,0.117c17.567,0,31.858-14.292,31.858-31.858   v-6.067c3.534-0.606,6.227-3.677,6.227-7.384s-2.692-6.778-6.227-7.384v-17.771c2.019,1.162,4.544,1.376,6.829,0.344   C404.665,259.758,406.344,255.315,404.639,251.54z M379.061,278.774h-5.541c-4.142,0-7.5,3.358-7.5,7.5s3.358,7.5,7.5,7.5h5.541   v5.951c0,9.296-7.563,16.858-16.832,16.858l-38.097-0.135c-0.009,0-0.018,0-0.026,0c-3.089,0-5.863,1.895-6.987,4.773   l-27.292,69.931c-1.506,3.858,0.401,8.208,4.26,9.713c0.896,0.35,1.818,0.515,2.725,0.515c3,0,5.833-1.813,6.989-4.775l0.28-0.717   c23.573,8.307,40.263,29.304,43.087,54.115h-45.113c-3.794-40.807-38.23-72.858-80.011-72.858c-0.316,0-0.627,0.02-0.942,0.024   l32.452-83.153c1.084-2.779,0.419-5.937-1.696-8.042l-16.648-16.572l19.054-12.049c3.5-2.213,4.544-6.844,2.332-10.345   c0-0.001-0.001-0.001-0.001-0.002c-2.213-3.5-6.846-4.544-10.347-2.331l-21.94,13.874l-40.88-40.693l148.242-91.445l22.571,49.977   l-32.543,20.578c-3.501,2.214-4.544,6.846-2.331,10.347c0.001,0.001,0.002,0.002,0.002,0.003c1.428,2.255,3.858,3.49,6.344,3.49   c1.37,0,2.757-0.375,4.001-1.162l30.76-19.451l15.558,34.45h-25.548c-3.264,0-6.153,2.111-7.146,5.221   c-0.992,3.11,0.142,6.504,2.803,8.394l9.195,6.529c1.318,0.936,2.834,1.385,4.336,1.385c2.347,0,4.659-1.099,6.122-3.158   c0.735-1.036,1.17-2.194,1.323-3.372h11.944V278.774z M157.112,450.004c3.732-32.52,31.428-57.858,64.931-57.858   c33.502,0,61.199,25.339,64.931,57.858H157.112z M281.414,15.138l27.428,60.732l-90.7,55.95c-3.525,2.175-4.621,6.795-2.446,10.321   c0,0,0.001,0.001,0.001,0.001c0.001,0.001,0.001,0.002,0.002,0.003c1.418,2.296,3.874,3.56,6.388,3.56   c1.343,0,2.703-0.361,3.93-1.118l2.195-1.354l14.301,20.552l-28.642,17.668l-16.263-19.341l2.876-1.774   c3.525-2.174,4.62-6.794,2.447-10.319c0,0,0-0.001-0.001-0.001c0,0,0,0,0,0c-2.174-3.525-6.795-4.62-10.321-2.446l-49.264,30.389   l-66.27-65.967c22.643-29.726,53.638-54.512,90.019-71.923C204.072,22.373,243.495,13.789,281.414,15.138z M271.667,116.427   l12.339,21.762L255.3,155.897l-14.301-20.552L271.667,116.427z M296.781,130.308l-12.339-21.762l30.625-18.892l10.375,22.973   L296.781,130.308z M184.705,170.071l16.263,19.341l-28.472,17.564l-18.218-18.135L184.705,170.071z"/></g><g transform="matrix(0.1155078570329919 0.07838033192896669 -0.07838033192896669 0.1155078570329919 0.36784951924446574 75.92099517227496)" id="L1_52"><path d="M257.776,402.23c-4.166,3.115-8.328,6.045-12.333,8.86c-0.101,0.071-0.197,0.139-0.298,0.21   c12.662,10.116,23.088,21.561,25.447,38.7h15.121C283.408,427.837,270.995,413.374,257.776,402.23z" fill="#e43017"/><path d="M207.223,383.139c4.166-3.115,8.329-6.045,12.334-8.861c0.101-0.071,0.196-0.139,0.296-0.209   c-14.423-11.523-25.944-24.773-25.944-46.2c0-28.513,19.883-42.493,42.906-58.681c5.468-3.845,10.976-7.722,16.23-11.834   c0.082-0.07,0.167-0.133,0.252-0.199c17.914-14.068,32.797-30.943,32.797-58.922c0-26.483-13.663-42.92-28.319-55.275   c-4.165,3.115-8.328,6.045-12.333,8.861c-0.101,0.071-0.196,0.139-0.297,0.209c14.424,11.524,25.945,24.775,25.945,46.205   c0,28.514-19.883,42.494-42.906,58.681c-5.516,3.878-11.072,7.79-16.368,11.942c-0.06,0.049-0.121,0.097-0.182,0.144   c-17.884,14.056-32.73,30.924-32.73,58.868C178.906,354.351,192.569,370.785,207.223,383.139z" fill="#e43017"/><path d="M253.502,386.627c17.823-14.035,32.592-30.887,32.592-58.758c0-26.482-13.663-42.918-28.317-55.271   c-4.165,3.115-8.328,6.045-12.332,8.86c-0.101,0.071-0.197,0.139-0.297,0.21c14.423,11.523,25.943,24.774,25.943,46.202   c0,28.513-19.883,42.492-42.906,58.679c-5.499,3.866-11.038,7.764-16.319,11.901c-0.109,0.091-0.222,0.176-0.335,0.26   c-16.181,12.735-29.85,27.789-32.251,51.291h15.119c3.189-23.597,21.508-36.479,42.416-51.179   c5.456-3.836,10.95-7.703,16.194-11.805C253.168,386.878,253.333,386.75,253.502,386.627z" fill="#ff9926"/><path d="M207.223,253.507c4.166-3.115,8.33-6.046,12.335-8.862c0.1-0.07,0.195-0.138,0.295-0.208   c-14.424-11.523-25.945-24.774-25.945-46.203c0-28.515,19.883-42.495,42.906-58.684c5.46-3.839,10.96-7.711,16.208-11.816   c0.129-0.111,0.263-0.213,0.398-0.314c17.859-14.049,32.673-30.911,32.673-58.826c0-29.55-24.039-53.591-53.589-53.594v15.003   c21.277,0.003,38.586,17.313,38.586,38.591c0,28.516-19.884,42.497-42.907,58.684c-5.454,3.835-10.947,7.702-16.189,11.802   c-0.162,0.141-0.33,0.271-0.501,0.396c-17.821,14.036-32.589,30.888-32.589,58.759   C178.905,224.718,192.568,241.153,207.223,253.507z" fill="#ff9926"/><path d="M232.5,15c-29.552,0-53.594,24.042-53.594,53.594c0,26.483,13.662,42.92,28.317,55.275   c4.164-3.114,8.326-6.044,12.33-8.859c0.101-0.071,0.2-0.14,0.3-0.211c-14.424-11.524-25.944-24.775-25.944-46.205   c0-21.279,17.312-38.591,38.591-38.591c0.002,0,0.003,0,0.005,0V15C232.503,15,232.502,15,232.5,15z" fill="#e43017"/><path d="M269.652,392.663c17.034-14.999,31.442-34.666,31.442-64.794c0-31.143-15.58-50.925-31.442-64.838   c17.035-15,31.443-34.669,31.443-64.797c0-31.144-15.58-50.928-31.444-64.841c17.035-15.001,31.443-34.67,31.443-64.799   C301.094,30.771,270.322,0,232.5,0c-37.823,0-68.594,30.771-68.594,68.594c0,31.143,15.58,50.927,31.443,64.841   c-17.035,15.001-31.444,34.67-31.444,64.8c0,31.144,15.58,50.926,31.443,64.839c-17.034,15-31.442,34.668-31.442,64.796   c0,31.142,15.58,50.924,31.442,64.836c-17.035,15-31.443,34.667-31.443,64.795c0,4.142,3.358,7.5,7.5,7.5h30.003   c4.142,0,7.5-3.358,7.5-7.5c0-15.207,7.316-24.519,23.614-37.012c15.945,12.161,23.57,21.503,23.57,37.012   c0,4.142,3.357,7.5,7.5,7.5h30.003c4.143,0,7.5-3.358,7.5-7.5C301.095,426.358,285.515,406.576,269.652,392.663z M178.905,198.234   c0-27.87,14.767-44.723,32.589-58.759c0.171-0.125,0.339-0.255,0.501-0.396c5.242-4.1,10.735-7.967,16.189-11.802   c23.023-16.188,42.907-30.168,42.907-58.684c0-21.277-17.309-38.588-38.586-38.591c-0.002,0-0.003,0-0.005,0   c-21.279,0-38.591,17.312-38.591,38.591c0,21.429,11.521,34.681,25.944,46.205c-0.101,0.071-0.199,0.14-0.3,0.211   c-4.004,2.815-8.165,5.745-12.33,8.859c-14.655-12.355-28.317-28.791-28.317-55.275C178.906,39.042,202.948,15,232.5,15   c0.002,0,0.003,0,0.005,0c29.55,0.003,53.589,24.043,53.589,53.594c0,27.915-14.814,44.778-32.673,58.826   c-0.135,0.101-0.269,0.203-0.398,0.314c-5.248,4.106-10.747,7.977-16.208,11.816c-23.023,16.188-42.906,30.169-42.906,58.684   c0,21.429,11.521,34.679,25.945,46.203c-0.1,0.07-0.195,0.138-0.295,0.208c-4.005,2.816-8.169,5.747-12.335,8.862   C192.568,241.153,178.905,224.718,178.905,198.234z M208.909,68.594c0-13.008,10.583-23.591,23.591-23.591   s23.591,10.583,23.591,23.591c0,15.21-7.314,24.523-23.615,37.018C216.529,93.448,208.909,84.108,208.909,68.594z M256.092,198.234   c0,15.208-7.316,24.521-23.614,37.014c-15.944-12.161-23.569-21.502-23.569-37.014c0-15.21,7.316-24.522,23.615-37.016   C248.467,173.38,256.092,182.721,256.092,198.234z M178.906,327.869c0-27.944,14.846-44.811,32.73-58.868   c0.061-0.047,0.122-0.094,0.182-0.144c5.296-4.152,10.852-8.064,16.368-11.942c23.023-16.188,42.906-30.167,42.906-58.681   c0-21.43-11.521-34.681-25.945-46.205c0.1-0.07,0.196-0.139,0.297-0.209c4.005-2.816,8.167-5.746,12.333-8.861   c14.655,12.355,28.319,28.792,28.319,55.275c0,27.979-14.883,44.854-32.797,58.922c-0.084,0.066-0.17,0.129-0.252,0.199   c-5.255,4.112-10.762,7.989-16.23,11.834c-23.023,16.188-42.906,30.167-42.906,58.681c0,21.426,11.521,34.677,25.944,46.2   c-0.1,0.07-0.196,0.138-0.296,0.209c-4.005,2.816-8.168,5.746-12.334,8.861C192.569,370.785,178.906,354.351,178.906,327.869z    M256.091,327.869c0,15.207-7.315,24.519-23.613,37.011c-15.944-12.161-23.569-21.501-23.569-37.011   c0-15.208,7.316-24.52,23.613-37.013C248.466,303.017,256.091,312.358,256.091,327.869z M236.814,398.821   c-20.908,14.7-39.227,27.583-42.416,51.179h-15.119c2.401-23.502,16.07-38.556,32.251-51.291c0.114-0.084,0.226-0.169,0.335-0.26   c5.281-4.137,10.82-8.035,16.319-11.901c23.023-16.187,42.906-30.166,42.906-58.679c0-21.428-11.52-34.678-25.943-46.202   c0.1-0.071,0.196-0.139,0.297-0.21c4.005-2.816,8.167-5.746,12.332-8.86c14.654,12.354,28.317,28.789,28.317,55.271   c0,27.871-14.77,44.723-32.592,58.758c-0.168,0.123-0.334,0.251-0.493,0.389C247.765,391.117,242.27,394.985,236.814,398.821z    M270.592,450c-2.359-17.139-12.785-28.584-25.447-38.7c0.101-0.071,0.197-0.139,0.298-0.21c4.005-2.816,8.168-5.746,12.333-8.86   c13.22,11.144,25.632,25.607,27.937,47.77H270.592z"/></g><g transform="matrix(0.08298131776389658 0.04690248434083849 -0.04690248434083849 0.08298131776389658 75.59365450583427 289.73709532319015)" id="L1_53"><path d="M450,352.459V98.885h-35.864c-4.418,0-8-3.582-8-8c0-0.002,0-0.003,0-0.005h-14   c0,0.002,0,0.003,0,0.005c0,4.418-3.582,8-8,8h-2v192.366c0,4.418-3.582,8-8,8h-158.08c2.102,6.408,3.195,13.147,3.195,19.955   c0,4.418-3.582,8-8,8s-8-3.582-8-8c0-8.425-2.215-16.707-6.406-23.952c-8.549-14.778-24.452-23.958-41.504-23.958H91.066   c-0.861,1.813-1.356,3.833-1.356,5.974c0,2.143,0.497,4.166,1.359,5.981h44.691c4.418,0,8,3.582,8,8   c0,17.506,14.243,31.748,31.751,31.748c4.418,0,8,3.582,8,8s-3.582,8-8,8c-23.604,0-43.264-17.214-47.081-39.748H29.636   c-0.86,1.815-1.356,3.837-1.356,5.979c0,2.141,0.495,4.162,1.354,5.976h76.931c4.418,0,8,3.582,8,8s-3.582,8-8,8H9.357   C8.496,329.019,8,331.039,8,333.18c0,2.143,0.497,4.165,1.359,5.981h97.207c4.418,0,8,3.582,8,8s-3.582,8-8,8H39.768   c-0.862,1.815-1.358,3.837-1.358,5.979c0,2.141,0.496,4.161,1.356,5.975h395.578C443.425,367.115,450,360.541,450,352.459z" fill="#ff9926"/><path d="M114.565,319.206c0-4.418-3.582-8-8-8H29.634H8c-4.418,0-8,3.582-8,8s3.582,8,8,8h1.357h97.209   C110.983,327.206,114.565,323.624,114.565,319.206z"/><path d="M114.565,347.161c0-4.418-3.582-8-8-8H9.359H8c-4.418,0-8,3.582-8,8s3.582,8,8,8h31.768h66.797   C110.983,355.161,114.565,351.579,114.565,347.161z"/><path d="M175.511,338.999c4.418,0,8-3.582,8-8s-3.582-8-8-8c-17.508,0-31.751-14.242-31.751-31.748c0-4.418-3.582-8-8-8H91.069   H28.275c-4.418,0-8,3.582-8,8s3.582,8,8,8h1.361h98.794C132.247,321.784,151.906,338.999,175.511,338.999z"/><path d="M196.845,295.254c4.191,7.245,6.406,15.527,6.406,23.952c0,4.418,3.582,8,8,8s8-3.582,8-8   c0-6.807-1.093-13.546-3.195-19.955h158.08c4.418,0,8-3.582,8-8V98.885h2c4.418,0,8-3.582,8-8c0-0.002,0-0.003,0-0.005   c-0.003-4.416-3.583-7.995-8-7.995h-10c-4.418,0-8,3.582-8,8v192.366h-157.96c-11.839-17.351-31.671-27.955-52.835-27.955H89.714   c-4.418,0-8,3.582-8,8s3.582,8,8,8h1.353h64.274C172.393,271.296,188.296,280.476,196.845,295.254z"/><path d="M458,82.885h-43.864c-4.416,0-7.997,3.579-8,7.995c0,0.002,0,0.003,0,0.005c0,4.418,3.582,8,8,8H450v253.575   c0,8.081-6.575,14.656-14.656,14.656H39.766h-1.353c-4.418,0-8,3.582-8,8s3.582,8,8,8h396.931   c16.904,0,30.656-13.752,30.656-30.656V90.885C466,86.466,462.418,82.885,458,82.885z"/></g></defs><g fi:class="KUsePattern" opacity="0.33"><pattern id="pattern_L1_44" width="350" height="350" patternUnits="userSpaceOnUse"><use xlink:href="#L1_44" x="-350" y="-350"/><use xlink:href="#L1_44" x="0" y="-350"/><use xlink:href="#L1_44" x="350" y="-350"/><use xlink:href="#L1_44" x="-350" y="0"/><use xlink:href="#L1_44" x="0" y="0"/><use xlink:href="#L1_44" x="350" y="0"/><use xlink:href="#L1_44" x="-350" y="350"/><use xlink:href="#L1_44" x="0" y="350"/><use xlink:href="#L1_44" x="350" y="350"/></pattern><rect x="0" y="0" width="100%" height="100%" fill="url(#pattern_L1_44)"/></g><g fi:class="KUsePattern" opacity="0.32"><pattern id="pattern_L1_45" width="350" height="350" patternUnits="userSpaceOnUse"><use xlink:href="#L1_45" x="-350" y="-350"/><use xlink:href="#L1_45" x="0" y="-350"/><use xlink:href="#L1_45" x="350" y="-350"/><use xlink:href="#L1_45" x="-350" y="0"/><use xlink:href="#L1_45" x="0" y="0"/><use xlink:href="#L1_45" x="350" y="0"/><use xlink:href="#L1_45" x="-350" y="350"/><use xlink:href="#L1_45" x="0" y="350"/><use xlink:href="#L1_45" x="350" y="350"/></pattern><rect x="0" y="0" width="100%" height="100%" fill="url(#pattern_L1_45)"/></g><g fi:class="KUsePattern" opacity="0.38"><pattern id="pattern_L1_46" width="350" height="350" patternUnits="userSpaceOnUse"><use xlink:href="#L1_46" x="-350" y="-350"/><use xlink:href="#L1_46" x="0" y="-350"/><use xlink:href="#L1_46" x="350" y="-350"/><use xlink:href="#L1_46" x="-350" y="0"/><use xlink:href="#L1_46" x="0" y="0"/><use xlink:href="#L1_46" x="350" y="0"/><use xlink:href="#L1_46" x="-350" y="350"/><use xlink:href="#L1_46" x="0" y="350"/><use xlink:href="#L1_46" x="350" y="350"/></pattern><rect x="0" y="0" width="100%" height="100%" fill="url(#pattern_L1_46)"/></g><g fi:class="KUsePattern" opacity="0.31"><pattern id="pattern_L1_47" width="350" height="350" patternUnits="userSpaceOnUse"><use xlink:href="#L1_47" x="-350" y="-350"/><use xlink:href="#L1_47" x="0" y="-350"/><use xlink:href="#L1_47" x="350" y="-350"/><use xlink:href="#L1_47" x="-350" y="0"/><use xlink:href="#L1_47" x="0" y="0"/><use xlink:href="#L1_47" x="350" y="0"/><use xlink:href="#L1_47" x="-350" y="350"/><use xlink:href="#L1_47" x="0" y="350"/><use xlink:href="#L1_47" x="350" y="350"/></pattern><rect x="0" y="0" width="100%" height="100%" fill="url(#pattern_L1_47)"/></g><g fi:class="KUsePattern" opacity="0.3"><pattern id="pattern_L1_48" width="350" height="350" patternUnits="userSpaceOnUse"><use xlink:href="#L1_48" x="-350" y="-350"/><use xlink:href="#L1_48" x="0" y="-350"/><use xlink:href="#L1_48" x="350" y="-350"/><use xlink:href="#L1_48" x="-350" y="0"/><use xlink:href="#L1_48" x="0" y="0"/><use xlink:href="#L1_48" x="350" y="0"/><use xlink:href="#L1_48" x="-350" y="350"/><use xlink:href="#L1_48" x="0" y="350"/><use xlink:href="#L1_48" x="350" y="350"/></pattern><rect x="0" y="0" width="100%" height="100%" fill="url(#pattern_L1_48)"/></g><g fi:class="KUsePattern" opacity="0.31"><pattern id="pattern_L1_49" width="350" height="350" patternUnits="userSpaceOnUse"><use xlink:href="#L1_49" x="-350" y="-350"/><use xlink:href="#L1_49" x="0" y="-350"/><use xlink:href="#L1_49" x="350" y="-350"/><use xlink:href="#L1_49" x="-350" y="0"/><use xlink:href="#L1_49" x="0" y="0"/><use xlink:href="#L1_49" x="350" y="0"/><use xlink:href="#L1_49" x="-350" y="350"/><use xlink:href="#L1_49" x="0" y="350"/><use xlink:href="#L1_49" x="350" y="350"/></pattern><rect x="0" y="0" width="100%" height="100%" fill="url(#pattern_L1_49)"/></g><g fi:class="KUsePattern" opacity="0.32"><pattern id="pattern_L1_50" width="350" height="350" patternUnits="userSpaceOnUse"><use xlink:href="#L1_50" x="-350" y="-350"/><use xlink:href="#L1_50" x="0" y="-350"/><use xlink:href="#L1_50" x="350" y="-350"/><use xlink:href="#L1_50" x="-350" y="0"/><use xlink:href="#L1_50" x="0" y="0"/><use xlink:href="#L1_50" x="350" y="0"/><use xlink:href="#L1_50" x="-350" y="350"/><use xlink:href="#L1_50" x="0" y="350"/><use xlink:href="#L1_50" x="350" y="350"/></pattern><rect x="0" y="0" width="100%" height="100%" fill="url(#pattern_L1_50)"/></g><g fi:class="KUsePattern" opacity="0.31"><pattern id="pattern_L1_51" width="350" height="350" patternUnits="userSpaceOnUse"><use xlink:href="#L1_51" x="-350" y="-350"/><use xlink:href="#L1_51" x="0" y="-350"/><use xlink:href="#L1_51" x="350" y="-350"/><use xlink:href="#L1_51" x="-350" y="0"/><use xlink:href="#L1_51" x="0" y="0"/><use xlink:href="#L1_51" x="350" y="0"/><use xlink:href="#L1_51" x="-350" y="350"/><use xlink:href="#L1_51" x="0" y="350"/><use xlink:href="#L1_51" x="350" y="350"/></pattern><rect x="0" y="0" width="100%" height="100%" fill="url(#pattern_L1_51)"/></g><g fi:class="KUsePattern" opacity="0.31"><pattern id="pattern_L1_52" width="350" height="350" patternUnits="userSpaceOnUse"><use xlink:href="#L1_52" x="-350" y="-350"/><use xlink:href="#L1_52" x="0" y="-350"/><use xlink:href="#L1_52" x="350" y="-350"/><use xlink:href="#L1_52" x="-350" y="0"/><use xlink:href="#L1_52" x="0" y="0"/><use xlink:href="#L1_52" x="350" y="0"/><use xlink:href="#L1_52" x="-350" y="350"/><use xlink:href="#L1_52" x="0" y="350"/><use xlink:href="#L1_52" x="350" y="350"/></pattern><rect x="0" y="0" width="100%" height="100%" fill="url(#pattern_L1_52)"/></g><g fi:class="KUsePattern" opacity="0.3"><pattern id="pattern_L1_53" width="350" height="350" patternUnits="userSpaceOnUse"><use xlink:href="#L1_53" x="-350" y="-350"/><use xlink:href="#L1_53" x="0" y="-350"/><use xlink:href="#L1_53" x="350" y="-350"/><use xlink:href="#L1_53" x="-350" y="0"/><use xlink:href="#L1_53" x="0" y="0"/><use xlink:href="#L1_53" x="350" y="0"/><use xlink:href="#L1_53" x="-350" y="350"/><use xlink:href="#L1_53" x="0" y="350"/><use xlink:href="#L1_53" x="350" y="350"/></pattern><rect x="0" y="0" width="100%" height="100%" fill="url(#pattern_L1_53)"/></g></svg>